<svg xmlns="http://www.w3.org/2000/svg"  viewBox="0 0 48 48" width="96px" height="96px"><linearGradient id="DIkTyBMFZwUEEOM1rIQ4aa" x1="-1.206" x2="28.667" y1="7.528" y2="52.528" gradientUnits="userSpaceOnUse"><stop offset="0" stop-color="#f24707"/><stop offset=".43" stop-color="#f24f07"/><stop offset="1" stop-color="#f26207"/></linearGradient><path fill="url(#DIkTyBMFZwUEEOM1rIQ4aa)" d="M22,42H12c-1.657,0-3-1.343-3-3v-6c0-1.657,1.343-3,3-3h13v9C25,40.657,23.657,42,22,42z"/><linearGradient id="DIkTyBMFZwUEEOM1rIQ4ab" x1="9.371" x2="39.243" y1=".507" y2="45.507" gradientUnits="userSpaceOnUse"><stop offset="0" stop-color="#f24707"/><stop offset=".43" stop-color="#f24f07"/><stop offset="1" stop-color="#f26207"/></linearGradient><path fill="url(#DIkTyBMFZwUEEOM1rIQ4ab)" d="M22,6H12c-1.657,0-3,1.343-3,3v6 c0,1.657,1.343,3,3,3h13V9C25,7.343,23.657,6,22,6z"/><linearGradient id="DIkTyBMFZwUEEOM1rIQ4ac" x1="14.118" x2="43.99" y1="-2.644" y2="42.356" gradientUnits="userSpaceOnUse"><stop offset="0" stop-color="#f24707"/><stop offset=".43" stop-color="#f24f07"/><stop offset="1" stop-color="#f26207"/></linearGradient><path fill="url(#DIkTyBMFZwUEEOM1rIQ4ac)" d="M37,30H25V18h12c1.657,0,3,1.343,3,3v6 C40,28.657,38.657,30,37,30z"/></svg>